<svg width="33" height="32" viewBox="0 0 33 32" fill="none" xmlns="http://www.w3.org/2000/svg">
<g id="Group">
<path id="Vector" opacity="0.4" d="M32.9992 9.29595V19.0399L30.3097 16.7999C29.0228 15.7279 26.9438 15.7279 25.6569 16.7999L18.793 22.5119C17.5061 23.5839 15.4271 23.5839 14.1401 22.5119L13.5792 22.0639C12.4077 21.0719 10.5432 20.9759 9.22327 21.8399L1.10547 27.1199L0.923977 27.2479C0.313492 25.9679 0 24.4479 0 22.7039V9.29595C0 3.47198 3.58041 0 9.58626 0H23.4129C29.4188 0 32.9992 3.47198 32.9992 9.29595Z" fill="#6E7079"/>
<path id="Vector_2" d="M11.5485 13.4079C13.7173 13.4079 15.4753 11.7031 15.4753 9.59997C15.4753 7.49688 13.7173 5.79199 11.5485 5.79199C9.37971 5.79199 7.62158 7.49688 7.62158 9.59997C7.62158 11.7031 9.37971 13.4079 11.5485 13.4079Z" fill="#6E7079"/>
<path id="Vector_3" d="M32.9999 19.0401V22.7041C32.9999 28.528 29.4195 32 23.4137 32H9.58709C5.37969 32 2.34377 30.288 0.924805 27.248L1.1063 27.12L9.2241 21.8401C10.5441 20.9761 12.4085 21.0721 13.5799 22.0641L14.1409 22.5121C15.4279 23.5841 17.5068 23.5841 18.7938 22.5121L25.6576 16.8001C26.9446 15.7281 29.0235 15.7281 30.3105 16.8001L32.9999 19.0401Z" fill="#6E7079"/>
</g>
</svg>
