<svg width="123" height="123" viewBox="0 0 123 123" fill="none" xmlns="http://www.w3.org/2000/svg">
<g id="&#240;&#159;&#166;&#134; icon &#34;direct inbox&#34;">
<g id="Group">
<g id="Group_2" opacity="0.4">
<path id="Vector" d="M61.2617 4.37588V44.1661L72.6303 32.7974" stroke="#292D32" stroke-width="8.52646" stroke-linecap="round" stroke-linejoin="round"/>
<path id="Vector_2" d="M61.2617 44.166L49.8931 32.7974" stroke="#292D32" stroke-width="8.52646" stroke-linecap="round" stroke-linejoin="round"/>
</g>
<path id="Vector_3" opacity="0.4" d="M4.30755 66.9033H29.3754C31.5354 66.9033 33.4681 68.097 34.4344 70.0297L41.085 83.3309C43.0177 87.1963 46.9399 89.6405 51.2601 89.6405H71.3257C75.6458 89.6405 79.568 87.1963 81.5007 83.3309L88.1513 70.0297C89.1176 68.097 91.1071 66.9033 93.2103 66.9033H117.994" stroke="#292D32" stroke-width="8.52646" stroke-linecap="round" stroke-linejoin="round"/>
<path id="Vector_4" d="M32.8401 16.4828C12.7177 19.4386 4.41857 31.262 4.41857 55.5341V78.2713C4.41857 106.693 15.7872 118.062 44.2087 118.062H78.3146C106.736 118.062 118.105 106.693 118.105 78.2713V55.5341C118.105 31.262 109.806 19.4386 89.6832 16.4828" stroke="#292D32" stroke-width="8.52646" stroke-linecap="round" stroke-linejoin="round"/>
</g>
</g>
</svg>
