<svg width="54" height="54" viewBox="0 0 54 54" fill="none" xmlns="http://www.w3.org/2000/svg">
<g id="&#240;&#159;&#166;&#134; icon &#34;send 2&#34;">
<g id="Group">
<path id="Vector" opacity="0.4" d="M19.4568 10.5129L41.1949 9.11268C50.9545 8.48734 54.4705 14.7681 49.0556 23.0799L36.9391 41.5765C28.7977 54.0271 21.4686 52.0505 20.6915 37.1946L20.3525 30.6366L14.9761 27.0392C2.81758 18.9102 4.82546 11.4651 19.4568 10.5129Z" fill="#6435B1" fill-opacity="0.78"/>
<path id="Vector_2" d="M26.6225 27.9362C26.203 27.823 25.8261 27.5525 25.5859 27.1258C25.1216 26.3008 25.4128 25.2212 26.2289 24.7415L36.9349 18.4116C37.751 17.9319 38.8107 18.2177 39.275 19.0427C39.7392 19.8676 39.4481 20.9473 38.6319 21.4269L27.9259 27.7568C27.5099 27.9824 27.0419 28.0493 26.6225 27.9362Z" fill="#6435B1" fill-opacity="0.78"/>
</g>
</g>
</svg>
