<svg width="58" height="54" viewBox="0 0 58 54" fill="none" xmlns="http://www.w3.org/2000/svg">
<g id="&#240;&#159;&#166;&#134; icon &#34;instagram&#34;">
<g id="Group">
<path id="Vector" d="M21.5 50H36.5C49 50 54 45.4 54 33.9V20.1C54 8.6 49 4 36.5 4H21.5C9 4 4 8.6 4 20.1V33.9C4 45.4 9 50 21.5 50Z" stroke="#292D32" stroke-width="7.29484" stroke-linecap="round" stroke-linejoin="round"/>
<path id="Vector_2" opacity="0.34" d="M29 35.05C33.8325 35.05 37.75 31.4459 37.75 27C37.75 22.5541 33.8325 18.95 29 18.95C24.1675 18.95 20.25 22.5541 20.25 27C20.25 31.4459 24.1675 35.05 29 35.05Z" stroke="#292D32" stroke-width="7.29484" stroke-linecap="round" stroke-linejoin="round"/>
<path id="Vector_3" opacity="0.34" d="M43.0903 15.5H43.1193" stroke="#292D32" stroke-width="9.72646" stroke-linecap="round" stroke-linejoin="round"/>
</g>
</g>
</svg>
