<svg width="32" height="31" viewBox="0 0 32 31" fill="none" xmlns="http://www.w3.org/2000/svg">
<g id="&#240;&#159;&#166;&#134; icon &#34;gallery&#34;">
<g id="Group">
<path id="Vector" opacity="0.4" d="M31.9992 9.00546V18.4449L29.3913 16.2749C28.1433 15.2364 26.1273 15.2364 24.8794 16.2749L18.2235 21.8084C16.9756 22.8469 14.9596 22.8469 13.7117 21.8084L13.1677 21.3744C12.0317 20.4134 10.2237 20.3204 8.94378 21.1574L1.07197 26.2724L0.895977 26.3964C0.303992 25.1564 0 23.6839 0 21.9944V9.00546C0 3.36348 3.47191 0 9.29577 0H22.7034C28.5273 0 31.9992 3.36348 31.9992 9.00546Z" fill="#A886DF" fill-opacity="0.78"/>
<path id="Vector_2" d="M11.1984 12.989C13.3015 12.989 15.0063 11.3375 15.0063 9.3001C15.0063 7.26272 13.3015 5.61111 11.1984 5.61111C9.09537 5.61111 7.39052 7.26272 7.39052 9.3001C7.39052 11.3375 9.09537 12.989 11.1984 12.989Z" fill="#A886DF" fill-opacity="0.78"/>
<path id="Vector_3" d="M32 18.445V21.9945C32 27.6365 28.528 31 22.7042 31H9.2966C5.2167 31 2.27277 29.3415 0.896809 26.3965L1.0728 26.2725L8.94461 21.1575C10.2246 20.3205 12.0325 20.4135 13.1684 21.3745L13.7124 21.8085C14.9604 22.847 16.9763 22.847 18.2243 21.8085L24.8801 16.2751C26.1281 15.2366 28.144 15.2366 29.392 16.2751L32 18.445Z" fill="#A886DF" fill-opacity="0.78"/>
</g>
</g>
</svg>
