<svg width="30" height="28" viewBox="0 0 30 28" fill="none" xmlns="http://www.w3.org/2000/svg">
<g id="&#240;&#159;&#166;&#134; icon &#34;emoji happy&#34;">
<g id="Group">
<path id="Vector" d="M19.186 28H10.814C3.23721 28 0 24.9786 0 17.907V10.093C0 3.0214 3.23721 0 10.814 0H19.186C26.7628 0 30 3.0214 30 10.093V17.907C30 24.9786 26.7628 28 19.186 28ZM10.814 1.95349C4.38139 1.95349 2.09302 4.0893 2.09302 10.093V17.907C2.09302 23.9107 4.38139 26.0465 10.814 26.0465H19.186C25.6186 26.0465 27.907 23.9107 27.907 17.907V10.093C27.907 4.0893 25.6186 1.95349 19.186 1.95349H10.814Z" fill="#6435B1" fill-opacity="0.78"/>
<path id="Vector_2" d="M19.8837 12.0465C18.1535 12.0465 16.7442 10.7312 16.7442 9.11627C16.7442 7.50138 18.1535 6.18604 19.8837 6.18604C21.6139 6.18604 23.0232 7.50138 23.0232 9.11627C23.0232 10.7312 21.6139 12.0465 19.8837 12.0465ZM19.8837 8.13952C19.3116 8.13952 18.8372 8.58231 18.8372 9.11627C18.8372 9.65022 19.3116 10.093 19.8837 10.093C20.4558 10.093 20.9302 9.65022 20.9302 9.11627C20.9302 8.58231 20.4558 8.13952 19.8837 8.13952Z" fill="#6435B1" fill-opacity="0.78"/>
<path id="Vector_3" d="M10.1163 12.0465C8.38604 12.0465 6.97674 10.7312 6.97674 9.11627C6.97674 7.50138 8.38604 6.18604 10.1163 6.18604C11.8465 6.18604 13.2558 7.50138 13.2558 9.11627C13.2558 10.7312 11.8465 12.0465 10.1163 12.0465ZM10.1163 8.13952C9.54418 8.13952 9.06976 8.58231 9.06976 9.11627C9.06976 9.65022 9.54418 10.093 10.1163 10.093C10.6884 10.093 11.1628 9.65022 11.1628 9.11627C11.1628 8.58231 10.6884 8.13952 10.1163 8.13952Z" fill="#6435B1" fill-opacity="0.78"/>
<path id="Vector_4" d="M15 23.7023C10.9535 23.7023 7.67442 20.6288 7.67442 16.8651C7.67442 15.68 8.70698 14.7163 9.97675 14.7163H20.0233C21.293 14.7163 22.3256 15.68 22.3256 16.8651C22.3256 20.6288 19.0465 23.7023 15 23.7023ZM9.97675 16.6698C9.86512 16.6698 9.76744 16.7609 9.76744 16.8651C9.76744 19.5609 12.1116 21.7488 15 21.7488C17.8884 21.7488 20.2326 19.5609 20.2326 16.8651C20.2326 16.7609 20.1349 16.6698 20.0233 16.6698H9.97675Z" fill="#6435B1" fill-opacity="0.78"/>
</g>
</g>
</svg>
